<svg width="25" height="25" viewBox="0 0 25 25" fill="none" xmlns="http://www.w3.org/2000/svg">
    <path fill-rule="evenodd" clip-rule="evenodd"
        d="M6.54715 8.28003L11.1717 8.66003L15.6404 9.03003V19.03L11.1717 18.66L6.54715 18.28V8.28003Z"
        fill="#6B7445" />
    <path fill-rule="evenodd" clip-rule="evenodd"
        d="M15.6404 9.03003L14.9996 6.45003L14.3414 3.78003L6.54715 8.28003V18.28L14.3414 13.78L14.9996 16.45L15.6404 19.03V9.03003Z"
        fill="#6B7445" />
    <path fill-rule="evenodd" clip-rule="evenodd"
        d="M6.54715 8.28003L11.1717 8.66003L15.6404 9.03003V19.03L11.1717 18.66L6.54715 18.28V8.28003Z"
        fill="#6B7445" />
    <path fill-rule="evenodd" clip-rule="evenodd"
        d="M15.6404 9.03003L14.9996 6.45003L14.3414 3.78003L6.54715 8.28003V18.28L14.3414 13.78L14.9996 16.45L15.6404 19.03V9.03003Z"
        fill="#6B7445" />
    <path fill-rule="evenodd" clip-rule="evenodd"
        d="M6.54715 8.28003L11.1717 8.66003L15.6404 9.03003V19.03L11.1717 18.66L6.54715 18.28V8.28003Z"
        fill="#6B7445" />
    <path fill-rule="evenodd" clip-rule="evenodd"
        d="M15.6404 9.03003L14.9996 6.45003L14.3414 3.78003L6.54715 8.28003V18.28L14.3414 13.78L14.9996 16.45L15.6404 19.03V9.03003Z"
        fill="#6B7445" />
    <path fill-rule="evenodd" clip-rule="evenodd"
        d="M19.9272 1.555C18.0133 0.65 15.7357 0.135 13.4061 0V10C15.7357 10.135 18.0133 10.65 19.9272 11.555V1.555Z"
        fill="#6B7445" />
    <path fill-rule="evenodd" clip-rule="evenodd" d="M13.4061 0L13.3974 1.425V11.425L13.4061 10V0Z"
        fill="#6B7445" />
    <path fill-rule="evenodd" clip-rule="evenodd"
        d="M13.3974 1.42499C15.1399 1.54887 16.7919 1.94281 18.1779 2.56499L19.9272 1.55499V11.555L18.1779 12.565C16.7919 11.9428 15.1399 11.5489 13.3974 11.425V1.42499Z"
        fill="#6B7445" />
    <path fill-rule="evenodd" clip-rule="evenodd"
        d="M10.9552 1.425L10.9466 0C8.55481 0.135742 6.28598 0.676752 4.42539 1.555V11.555C6.28598 10.6768 8.55481 10.1357 10.9466 10L10.9552 11.425V1.425Z"
        fill="#6B7445" />
    <path fill-rule="evenodd" clip-rule="evenodd"
        d="M4.42539 1.55499L6.17476 2.56499C7.59504 1.92499 9.24915 1.54999 10.9552 1.42499V11.425C9.24915 11.55 7.59504 11.925 6.17476 12.565L4.42539 11.555V1.55499Z"
        fill="#6B7445" />
    <path fill-rule="evenodd" clip-rule="evenodd"
        d="M4.44271 3.56499L2.69334 2.55499C1.12583 3.65999 0.233827 4.97499 0 6.31999V16.32C0.233827 14.975 1.12583 13.66 2.69334 12.555L4.44271 13.565V3.56499Z"
        fill="#6B7445" />
    <path fill-rule="evenodd" clip-rule="evenodd"
        d="M0 6.32H2.47683C2.68619 5.31558 3.36587 4.36309 4.44271 3.565V13.565C3.36587 14.3631 2.68619 15.3156 2.47683 16.32H0V6.32Z"
        fill="#6B7445" />
    <path fill-rule="evenodd" clip-rule="evenodd"
        d="M0 7.73999C0.238642 9.12037 1.17535 10.4297 2.69334 11.505L4.44271 10.495V20.495L2.69334 21.505C1.17535 20.4297 0.238642 19.1204 0 17.74V7.73999Z"
        fill="#6B7445" />
    <path fill-rule="evenodd" clip-rule="evenodd"
        d="M4.44271 10.495C3.36503 9.69479 2.68271 8.74105 2.46817 7.73499L0 7.73999V17.74L2.46817 17.735C2.68271 18.7411 3.36503 19.6948 4.44271 20.495V10.495Z"
        fill="#6B7445" />
    <path fill-rule="evenodd" clip-rule="evenodd"
        d="M4.46869 12.53L6.21806 11.52C10.0632 13.22 15.5971 13.055 19.1045 11.03C20.9985 9.93648 21.9531 8.5018 21.9669 7.06372V17.0637C21.9531 18.5018 20.9985 19.9365 19.1045 21.03C15.5971 23.055 10.0632 23.22 6.21806 21.52L4.46869 22.53V12.53Z"
        fill="#6B7445" />
    <path fill-rule="evenodd" clip-rule="evenodd"
        d="M21.9669 7.06377C21.9786 5.83874 21.3077 4.61123 19.9532 3.59003V13.59C21.3077 14.6112 21.9786 15.8387 21.9669 17.0638V7.06377Z"
        fill="#6B7445" />
    <path fill-rule="evenodd" clip-rule="evenodd"
        d="M19.9532 3.59002L21.7026 2.58002C23.4953 3.85882 24.401 5.41481 24.4215 6.97352V16.9735C24.401 15.4148 23.4953 13.8588 21.7026 12.58L19.9532 13.59V3.59002Z"
        fill="#6B7445" />
    <path fill-rule="evenodd" clip-rule="evenodd"
        d="M24.4215 6.97351C24.4455 8.80329 23.2497 10.6368 20.8366 12.03C16.3679 14.61 9.28379 14.78 4.46869 12.53V22.53C9.28379 24.78 16.3679 24.61 20.8366 22.03C23.2497 20.6368 24.4455 18.8033 24.4215 16.9735V6.97351Z"
        fill="#6B7445" />
    <path
        d="M14.9996 6.45L14.3414 3.78L6.54715 8.28L11.1717 8.66L15.6404 9.03L14.9996 6.45ZM14.9996 6.45L14.3414 3.78L6.54715 8.28L11.1717 8.66L15.6404 9.03L14.9996 6.45ZM14.9996 6.45L14.3414 3.78L6.54715 8.28L11.1717 8.66L15.6404 9.03L14.9996 6.45ZM18.1779 2.565L19.9272 1.555C18.0133 0.65 15.7357 0.135 13.4061 0L13.3974 1.425C15.1399 1.54888 16.7919 1.94282 18.1779 2.565ZM10.9552 1.425L10.9466 0C8.55481 0.135742 6.28598 0.676752 4.42539 1.555L6.17476 2.565C7.59504 1.925 9.24915 1.55 10.9552 1.425ZM4.44271 3.565L2.69334 2.555C1.12583 3.66 0.233827 4.975 0 6.32H2.47683C2.68619 5.31558 3.36587 4.36308 4.44271 3.565ZM0 7.74C0.238642 9.12038 1.17535 10.4297 2.69334 11.505L4.44271 10.495C3.36503 9.6948 2.68271 8.74107 2.46817 7.735L0 7.74ZM20.8366 12.03C16.3679 14.61 9.28379 14.78 4.46869 12.53L6.21806 11.52C10.0632 13.22 15.5971 13.055 19.1045 11.03C22.6119 9.005 22.8977 5.81 19.9532 3.59L21.7026 2.58C25.5997 5.36 25.3053 9.45 20.8366 12.03Z"
        fill="#BBCB2E" />
</svg>